<?xml version="1.0" standalone="no"?>
<!DOCTYPE svg PUBLIC "-//W3C//DTD SVG 20010904//EN"
 "http://www.w3.org/TR/2001/REC-SVG-20010904/DTD/svg10.dtd">
<svg version="1.0" xmlns="http://www.w3.org/2000/svg"
 width="1080.000000pt" height="1080.000000pt" viewBox="0 0 1080.000000 1080.000000"
 preserveAspectRatio="xMidYMid meet">
<metadata>
Created by potrace 1.16, written by Peter Selinger 2001-2019
</metadata>
<g transform="translate(0.000000,1080.000000) scale(0.100000,-0.100000)"
fill="#000000" stroke="none">
<path d="M5040 9904 c-19 -2 -87 -9 -150 -15 -174 -16 -475 -60 -478 -70 -2
-5 -12 -9 -22 -9 -45 0 -50 -9 -50 -86 l0 -74 55 0 56 0 -3 -57 -3 -56 -130
-28 c-71 -16 -139 -33 -150 -39 -11 -5 -76 -26 -144 -45 -69 -20 -129 -39
-135 -44 -6 -5 -42 -19 -81 -31 -38 -13 -92 -33 -120 -45 -27 -13 -79 -35
-115 -50 -167 -70 -444 -218 -618 -331 -436 -283 -828 -646 -1131 -1049 -199
-264 -383 -584 -514 -895 -207 -489 -317 -1039 -317 -1581 0 -795 237 -1583
678 -2254 646 -981 1673 -1662 2858 -1895 334 -65 446 -75 874 -75 450 1 582
12 935 84 174 36 290 63 300 71 9 7 156 50 170 50 3 0 5 -16 5 -35 0 -28 4
-35 20 -35 18 0 20 -7 20 -75 0 -68 -2 -75 -20 -75 -16 0 -20 -7 -20 -35 0
-34 1 -35 28 -29 84 21 341 114 435 157 28 13 79 34 112 47 33 13 62 27 65 31
3 3 43 23 90 44 47 20 90 41 96 46 6 5 45 26 85 45 41 20 76 39 79 43 3 4 37
25 75 46 39 21 72 42 75 46 3 3 30 21 60 39 30 18 85 53 121 79 36 25 94 66
130 90 35 25 69 50 74 56 6 6 28 24 50 40 22 16 59 45 81 64 131 114 165 144
252 226 52 50 118 115 146 145 28 30 70 74 94 96 23 23 42 46 42 51 0 5 12 21
28 36 15 14 47 51 72 81 25 31 60 73 77 94 18 20 33 41 33 46 0 5 15 26 33 46
47 55 97 125 97 137 0 5 11 20 24 32 13 12 31 40 41 62 10 21 21 39 25 39 4 0
17 20 28 44 12 24 27 50 34 58 14 15 42 65 95 168 18 36 37 70 41 76 5 5 22
39 38 75 15 35 31 66 35 69 3 3 16 32 28 65 12 33 28 69 35 80 7 11 24 52 36
90 13 39 27 72 30 75 4 3 19 46 35 95 15 50 31 95 35 100 4 6 20 62 35 125 16
63 31 117 35 120 4 3 17 59 29 125 13 66 27 129 32 140 12 27 36 203 54 400
20 210 20 660 0 870 -18 197 -42 373 -54 400 -5 11 -19 74 -32 140 -12 66 -25
122 -29 125 -4 3 -19 57 -35 120 -15 63 -31 120 -35 125 -4 6 -20 51 -35 100
-16 50 -31 92 -35 95 -3 3 -17 37 -30 75 -12 39 -29 79 -36 90 -7 11 -23 47
-35 80 -12 33 -25 62 -28 65 -4 3 -20 34 -35 69 -16 36 -33 70 -38 75 -4 6
-23 40 -41 76 -53 103 -81 153 -95 168 -7 8 -22 34 -34 58 -11 24 -24 44 -28
44 -4 0 -15 18 -25 39 -10 22 -28 50 -41 62 -13 12 -24 27 -24 32 0 12 -50 82
-97 137 -18 20 -33 41 -33 46 0 5 -15 26 -33 46 -17 21 -52 63 -77 94 -25 30
-57 67 -72 81 -16 15 -28 31 -28 36 0 5 -19 28 -42 51 -24 22 -66 66 -94 96
-28 30 -94 96 -146 145 -87 82 -121 112 -252 226 -22 19 -59 48 -81 64 -22 16
-44 34 -50 40 -5 6 -39 31 -74 56 -36 24 -94 65 -130 90 -36 26 -91 61 -121
79 -30 18 -57 36 -60 39 -3 4 -36 25 -75 46 -38 21 -72 42 -75 46 -3 4 -38 23
-79 43 -40 19 -79 40 -85 45 -6 5 -49 26 -96 46 -47 21 -87 41 -90 44 -3 4
-32 18 -65 31 -33 13 -82 33 -110 46 -85 39 -264 104 -385 140 -63 19 -128 40
-145 48 -16 7 -102 28 -190 47 -88 18 -162 36 -165 40 -3 3 -70 16 -150 28
-324 48 -404 53 -790 56 -206 2 -391 1 -410 -1z m-649 -2024 c21 0 39 -4 39
-10 0 -5 9 -10 20 -10 13 0 22 -9 26 -25 6 -22 11 -25 55 -25 36 0 49 -4 49
-14 0 -9 15 -17 40 -21 30 -5 40 -11 40 -26 0 -15 7 -19 35 -19 24 0 35 -5 35
-15 0 -10 10 -15 30 -15 23 0 30 -4 30 -20 0 -16 7 -20 30 -20 23 0 30 -4 30
-20 0 -13 7 -20 20 -20 11 0 20 -7 20 -15 0 -10 11 -15 35 -15 28 0 35 -4 35
-20 0 -15 7 -20 25 -20 18 0 25 -5 25 -20 0 -11 7 -20 15 -20 8 0 15 -7 15
-15 0 -15 16 -19 53 -16 13 2 17 -5 17 -28 0 -25 4 -31 21 -31 14 0 19 -5 16
-13 -4 -10 2 -13 19 -9 17 3 24 0 24 -12 0 -9 8 -16 20 -16 13 0 20 -7 20 -20
0 -13 7 -20 20 -20 13 0 20 -7 20 -20 0 -13 7 -20 20 -20 11 0 20 -7 20 -15 0
-9 9 -15 25 -15 18 0 25 -5 25 -20 0 -11 5 -20 10 -20 6 0 10 -9 10 -20 0 -13
7 -20 20 -20 13 0 20 -7 20 -20 0 -14 7 -20 21 -20 16 0 20 -5 16 -19 -3 -14
-1 -18 9 -14 9 3 14 -2 14 -16 0 -28 20 -27 21 2 1 13 6 4 12 -20 5 -24 14
-43 18 -43 5 0 9 -7 9 -15 0 -9 9 -15 25 -15 18 0 25 -5 25 -20 0 -11 5 -20
10 -20 6 0 10 -7 10 -15 0 -8 4 -15 9 -15 5 0 13 -19 17 -42 4 -24 9 -37 11
-30 5 14 43 17 43 3 0 -5 -5 -11 -12 -13 -6 -2 -9 -12 -5 -21 4 -10 12 -14 22
-11 10 4 15 0 15 -15 0 -12 5 -21 10 -21 6 0 10 -9 10 -20 0 -13 7 -20 20 -20
11 0 20 -7 20 -15 0 -8 9 -15 20 -15 17 0 20 -7 20 -40 0 -28 4 -40 14 -40 25
0 22 -33 -9 -93 -31 -60 -38 -63 -87 -42 -17 7 -18 6 -34 -73 -3 -15 -18 -28
-44 -38 -35 -14 -40 -20 -46 -60 l-6 -43 -44 6 c-35 5 -47 2 -57 -11 -7 -9
-24 -23 -37 -29 -23 -12 -25 -18 -22 -66 l4 -54 -42 7 c-23 3 -46 4 -51 0 -6
-3 -34 -8 -62 -10 -41 -2 -55 1 -70 16 -12 14 -31 20 -60 20 -24 0 -48 5 -55
12 -20 20 -25 -16 -8 -56 16 -38 24 -141 12 -153 -4 -4 -15 -2 -25 4 -10 6
-22 8 -27 3 -5 -5 -29 -5 -54 0 -43 8 -47 7 -81 -26 -35 -34 -35 -35 -54 -14
-26 28 -71 26 -91 -5 -10 -16 -26 -25 -43 -25 -32 0 -41 -6 -69 -47 -27 -39
-61 -52 -74 -29 -12 21 -30 20 -72 -5 -39 -23 -41 -26 -26 -49 6 -10 4 -20 -6
-31 -13 -14 -10 -19 26 -43 43 -28 55 -66 21 -66 -25 0 -37 -18 -22 -33 26
-26 -1 -117 -35 -117 -7 0 -18 -9 -25 -21 l-11 -21 -22 21 c-28 26 -34 26 -38
0 -2 -12 -15 -31 -29 -42 -32 -23 -54 -14 -84 33 -16 25 -25 30 -46 26 -41 -8
-94 11 -109 38 -10 21 -18 23 -46 19 -39 -6 -47 14 -14 35 32 19 27 83 -10
138 -28 39 -31 51 -29 116 3 172 -1 249 -15 282 -9 21 -11 38 -5 41 5 4 5 14
-2 26 -6 11 -8 28 -4 37 9 23 12 132 3 132 -3 0 -12 23 -19 52 -6 29 -27 84
-45 123 -39 86 -50 135 -29 135 16 0 21 16 6 22 -4 2 -11 47 -15 101 -7 96 -7
97 15 97 21 0 22 1 4 20 -17 19 -17 20 6 39 19 15 21 23 14 40 -10 21 -11 20
-41 -19 l-32 -41 -7 86 c-6 75 -5 89 11 106 16 17 16 22 4 29 -8 6 -23 10 -32
10 -24 0 -23 13 2 35 28 25 25 35 -10 35 -30 0 -30 1 -15 24 14 21 14 25 0 36
-27 23 -30 77 -4 124 17 34 35 50 78 71 48 23 55 25 63 11 20 -36 108 -60 124
-35 3 6 25 19 48 29 41 17 42 20 56 86 8 38 13 74 11 79 -10 30 -10 41 -2 55
8 12 17 9 50 -18 28 -23 50 -32 75 -32 33 0 36 2 36 29 0 22 6 31 30 41 37 15
44 38 26 81 -20 47 -54 76 -100 85 l-39 7 44 16 c42 16 44 16 47 -1 3 -14 13
-18 43 -18z m-2441 -2515 c5 -14 23 -89 40 -168 77 -369 99 -468 106 -479 5
-7 13 13 22 48 18 77 77 348 108 494 13 63 28 118 32 122 5 5 73 7 153 6 l144
-3 3 -527 2 -528 -95 0 -95 0 0 462 c0 254 -3 458 -7 455 -3 -4 -21 -78 -39
-164 -19 -87 -49 -230 -69 -318 -20 -88 -47 -214 -60 -280 -36 -169 -27 -155
-95 -155 -54 0 -60 2 -65 23 -31 143 -79 366 -151 712 -19 94 -38 173 -43 177
-4 4 -5 -199 -3 -452 l4 -460 -101 0 -101 0 0 530 0 530 150 0 150 0 10 -25z
m1262 -95 c15 -63 41 -171 57 -240 16 -69 46 -195 66 -280 52 -220 94 -404 95
-412 0 -5 -46 -8 -103 -8 l-103 0 -22 98 c-12 53 -25 112 -28 130 l-6 32 -123
0 -122 0 -16 -77 c-9 -43 -22 -102 -28 -130 l-11 -53 -99 0 c-54 0 -99 2 -99
4 0 5 101 439 165 706 20 85 45 193 56 240 11 47 22 91 24 98 4 10 36 12 137
10 l132 -3 28 -115z m690 111 c145 -8 162 -11 215 -37 74 -37 102 -87 110
-196 10 -133 -27 -223 -102 -248 -35 -12 -48 -30 -20 -30 25 0 82 -59 100
-103 12 -29 19 -89 25 -192 7 -142 12 -169 48 -237 2 -5 -48 -8 -112 -8 -64 0
-116 1 -117 3 0 1 -4 86 -8 190 -7 165 -10 191 -28 215 -28 37 -73 51 -175 51
l-88 1 0 -230 0 -230 -95 0 -95 0 0 530 0 530 93 0 c50 -1 163 -5 249 -9z
m947 -33 c6 -18 24 -94 41 -168 16 -74 45 -200 65 -280 19 -80 46 -196 60
-258 14 -62 34 -145 44 -185 11 -39 22 -84 25 -99 l6 -28 -103 0 -104 0 -11
38 c-6 20 -19 79 -28 130 l-17 93 -125 -3 -126 -3 -7 -30 c-4 -16 -15 -74 -24
-127 l-17 -98 -99 0 c-114 0 -108 -7 -80 102 10 40 35 145 56 233 39 168 81
346 136 578 l33 137 132 0 132 0 11 -32z m871 -48 l0 -80 -115 0 -115 0 0
-445 0 -445 -97 0 -98 0 3 445 2 444 -122 3 -123 3 0 77 0 78 333 0 332 0 0
-80z m310 -125 l0 -205 150 0 150 0 0 205 0 205 93 0 92 0 0 -525 0 -525 -92
0 -93 0 0 240 0 240 -150 0 -150 0 0 -240 0 -240 -95 0 -95 0 0 525 0 525 95
0 95 0 0 -205z m880 -320 l0 -525 -95 0 -95 0 0 525 0 525 95 0 95 0 0 -525z
m290 -245 c0 -47 3 -60 15 -60 11 0 15 -12 15 -49 0 -26 3 -76 7 -110 l6 -63
-51 31 c-59 37 -87 87 -103 188 -21 135 -26 123 47 123 l64 0 0 -60z m-645
-560 c3 -5 14 -10 24 -10 10 0 28 -12 42 -26 20 -21 24 -36 24 -86 0 -54 -3
-62 -28 -82 l-28 -22 25 -12 c45 -20 60 -139 26 -202 -21 -38 -139 -76 -155
-50 -3 6 -14 10 -24 10 -34 0 -64 46 -69 105 l-4 55 38 0 c39 0 39 -1 41 -41
2 -70 51 -101 93 -59 15 15 20 33 20 72 0 63 -19 88 -67 88 -30 0 -33 3 -33
30 0 25 4 30 25 30 62 0 92 102 40 136 -23 15 -27 15 -50 0 -16 -10 -25 -26
-25 -41 0 -23 -4 -25 -41 -25 l-42 0 6 36 c7 41 42 84 68 84 10 0 21 5 24 10
3 6 19 10 35 10 16 0 32 -4 35 -10z m372 -10 c46 -22 47 -23 57 -62 6 -27 5
-28 -33 -28 -30 0 -41 5 -46 19 -7 23 -31 34 -56 26 -21 -7 -39 -55 -39 -107
0 -38 0 -39 22 -24 26 19 77 21 112 5 34 -16 50 -61 50 -139 0 -96 -17 -136
-67 -160 -52 -25 -76 -25 -125 1 -62 34 -67 50 -67 235 0 148 2 165 21 190 11
15 27 30 35 34 7 4 23 12 34 18 30 16 57 14 102 -8z m313 10 c0 -5 8 -10 18
-10 10 0 29 -12 43 -26 24 -25 24 -29 24 -209 0 -180 0 -184 -24 -209 -14 -14
-32 -26 -42 -26 -10 0 -21 -4 -24 -10 -8 -13 -40 -13 -68 2 -12 6 -29 14 -36
18 -8 4 -24 19 -35 34 -19 25 -21 42 -21 191 0 150 2 166 21 191 11 16 34 36
50 45 32 19 94 25 94 9z m-1270 -78 c0 -75 6 -91 26 -64 20 27 101 23 125 -7
17 -21 19 -41 19 -187 l0 -164 -40 0 -40 0 0 141 c0 149 -7 179 -43 179 -43 0
-47 -15 -47 -172 l0 -148 -40 0 -40 0 0 245 0 245 40 0 40 0 0 -68z m-170 -2
c0 -41 3 -50 18 -50 12 0 17 -8 17 -30 0 -22 -5 -30 -17 -30 -16 0 -18 -12
-18 -119 0 -107 2 -120 18 -125 14 -5 17 -14 14 -36 -3 -24 -9 -30 -29 -30
-13 0 -37 7 -53 15 l-30 16 0 139 c0 118 -2 140 -15 140 -10 0 -15 10 -15 30
0 20 5 30 15 30 11 0 15 12 15 50 l0 50 40 0 40 0 0 -50z m-1275 -61 c16 -13
30 -18 33 -12 24 36 97 43 136 12 l26 -20 0 -170 0 -169 -40 0 -40 0 0 148 c0
155 -4 172 -45 172 -41 0 -45 -17 -45 -173 l0 -148 -41 3 -41 3 1 125 c1 69
-2 139 -7 155 -10 36 -44 45 -73 19 -17 -15 -19 -32 -19 -161 l0 -143 -40 0
-40 0 0 185 0 185 40 0 c31 0 38 -3 34 -15 -7 -17 11 -21 21 -4 21 33 102 37
140 8z m475 12 c47 -13 58 -52 62 -219 l3 -152 -37 0 c-28 0 -38 5 -43 20 -8
25 -13 25 -45 0 -77 -60 -172 39 -128 135 7 16 37 38 84 62 41 20 76 45 80 55
8 27 -13 48 -48 48 -24 0 -32 -6 -41 -30 -9 -25 -17 -30 -44 -30 -40 0 -44 6
-29 50 18 57 101 85 186 61z m320 -36 c0 -40 -2 -45 -23 -45 -13 0 -33 -9 -45
-20 -20 -19 -22 -30 -22 -145 l0 -125 -39 0 -40 0 2 185 2 185 36 0 c33 0 36
-2 31 -25 -5 -30 13 -33 28 -4 10 18 40 36 63 38 4 1 7 -19 7 -44z m278 10
c20 -24 22 -36 22 -163 0 -75 3 -147 6 -159 6 -21 3 -23 -34 -23 -32 0 -41 4
-45 21 l-6 22 -36 -22 c-48 -28 -71 -27 -106 8 -23 24 -29 38 -29 73 0 58 15
76 97 118 69 35 85 58 63 85 -21 26 -59 18 -78 -15 -13 -24 -24 -30 -49 -30
-38 0 -41 12 -19 65 18 42 57 56 136 50 44 -3 60 -9 78 -30z m2358 29 c37 -10
44 -46 44 -214 l0 -160 -35 0 -35 0 0 148 c0 155 -4 172 -45 172 -41 0 -45
-17 -45 -173 l0 -148 -36 3 -35 3 -2 183 -2 182 37 0 c29 0 36 -3 32 -15 -4
-9 0 -15 10 -15 9 0 16 5 16 10 0 21 56 35 96 24z m-5072 -122 c20 -137 30
-162 40 -100 4 24 14 82 23 131 l16 87 32 0 32 0 24 -135 c13 -74 27 -131 31
-127 5 5 38 222 38 254 0 4 18 8 40 8 22 0 40 -4 40 -9 0 -8 -9 -55 -57 -283
l-16 -78 -43 0 c-24 0 -44 2 -44 4 0 9 -31 173 -36 189 -10 31 -17 11 -33 -91
l-16 -97 -47 -3 -46 -3 -12 58 c-19 97 -61 284 -67 299 -4 11 6 14 39 14 l44
0 18 -118z m445 16 c15 -126 22 -158 30 -158 4 0 15 59 26 130 l18 130 33 0
c38 0 34 9 65 -153 12 -64 24 -115 27 -113 3 4 42 238 42 259 0 4 19 7 41 7
38 0 41 -2 35 -22 -4 -13 -21 -96 -38 -185 l-32 -163 -42 0 c-48 0 -45 -5 -70
118 -10 50 -21 92 -25 92 -3 0 -9 -19 -13 -42 -4 -24 -11 -71 -17 -105 l-11
-63 -44 0 c-37 0 -44 3 -48 23 -3 12 -18 81 -35 152 -16 72 -33 145 -36 163
l-7 32 45 0 44 0 12 -102z m441 35 c6 -38 14 -90 17 -118 7 -59 19 -89 27 -65
2 8 12 68 22 133 l17 117 32 0 33 0 16 -87 c8 -49 18 -107 22 -131 4 -23 10
-45 14 -47 8 -5 12 15 31 168 l12 97 39 0 c24 0 38 -5 38 -12 0 -17 -48 -260
-62 -315 -10 -42 -11 -43 -53 -43 l-42 0 -17 89 c-9 49 -16 96 -16 105 0 22
-17 20 -24 -1 -2 -10 -10 -58 -16 -106 l-12 -88 -46 3 -45 3 -12 50 c-7 28
-23 99 -35 160 -12 60 -26 120 -31 132 -8 22 -6 23 35 23 l44 0 12 -67z m2540
-118 l0 -185 -40 0 -40 0 0 185 0 185 40 0 40 0 0 -185z m1360 0 l0 -185 -35
0 -34 0 -3 185 -3 185 38 0 37 0 0 -185z"/>
<path d="M3036 5173 c-3 -10 -19 -92 -36 -183 -17 -91 -34 -179 -39 -197 -5
-17 -6 -34 -3 -37 8 -9 170 -7 175 2 5 8 -76 419 -85 427 -3 4 -9 -2 -12 -12z"/>
<path d="M3750 5090 l0 -140 96 0 c142 0 177 22 190 124 8 61 -14 115 -56 137
-27 15 -56 19 -132 19 l-98 0 0 -140z"/>
<path d="M4671 5073 c-12 -65 -28 -147 -35 -183 -8 -36 -17 -82 -20 -102 l-7
-38 91 0 c83 0 90 2 90 19 0 18 -41 234 -70 369 -7 28 -15 52 -19 52 -4 0 -17
-53 -30 -117z"/>
<path d="M6825 3796 c-8 -19 -15 -54 -15 -76 0 -22 7 -57 15 -76 12 -30 19
-35 42 -32 36 4 53 38 53 108 0 70 -17 104 -53 108 -23 3 -30 -2 -42 -32z"/>
<path d="M7169 3983 c-20 -23 -25 -308 -6 -343 18 -36 61 -39 82 -6 14 21 16
49 13 181 -3 141 -5 158 -22 171 -26 19 -50 18 -67 -3z"/>
</g>
</svg>
